<svg x="0px" y="0px" viewBox="0 0 278 68" style="enable-background:new 0 0 278 68;" xml:space="preserve">
<style type="text/css">
	.st0{fill:#231815;}
	.st1{fill:#E50012;}
	.st2{fill:#FFFFFF;}
</style>
<path class="st0" d="M13.3,4.5h6.5v61.2h-7.1V13.7L3.3,20L0,13.5L13.3,4.5z"/>
<path class="st0" d="M57.5,3.7c11.8,0,22.2,9.2,22.2,31c0,21.3-9.8,31.6-22.1,31.6c-14,0-22.1-13.3-22.1-31.3
	C35.4,17.1,43.5,3.7,57.5,3.7z M57.5,10.2c-9.8,0-15,10.9-15,24.3c0,10,2.9,25.4,15,25.4c13.6,0,15-19.3,15-25
	C72.6,22.5,68.2,10.2,57.5,10.2z"/>
<path class="st0" d="M133.9,19.2L94,64.8l-2.6-3.6l39.9-45.7L133.9,19.2z"/>
<path class="st0" d="M152.5,50.2c0.3,2.6,1.3,9.7,11.9,9.7c14.6,0,15.9-18.3,16.3-23.3c-4.7,6.5-10.3,8.1-15.5,8.1
	C147,44.6,145,29.5,145,24.3c0-8.1,4-20.5,20.3-20.5c22,0,22.3,21.6,22.3,29.7c0,18.9-6.8,32.9-23.3,32.9c-14.3,0-18-9.6-18.7-16.1
	H152.5z M152.1,24.1c0,7.8,4.3,14.2,13.5,14.2c8.5,0,13.7-6.5,13.7-13.6c0-11.7-8.3-14.6-14.6-14.6
	C157.2,10.2,152.1,15.5,152.1,24.1z"/>
<ellipse class="st1" cx="243.9" cy="33.8" rx="33.9" ry="33.8"/>
<g>
	<path class="st2" d="M229.5,50.7v3.2h-3.9V13.4h36.7v40.3h-3.9v-3.1H229.5z M258.3,16.6h-28.8v13.1h28.8V16.6z M258.3,32.8h-28.8
		v14.6h28.8V32.8z"/>
</g>
</svg>
